<svg width="572" height="48" fill="none" xmlns="http://www.w3.org/2000/svg"><path d="M40.634 8.74a39.582 39.582 0 0 0-9.77-3.03.148.148 0 0 0-.157.074c-.422.75-.89 1.729-1.217 2.498a36.543 36.543 0 0 0-10.973 0 25.261 25.261 0 0 0-1.236-2.498.154.154 0 0 0-.157-.075 39.473 39.473 0 0 0-9.77 3.03.14.14 0 0 0-.064.056C1.067 18.092-.638 27.16.198 36.115a.165.165 0 0 0 .063.113c4.105 3.015 8.082 4.845 11.986 6.059a.155.155 0 0 0 .168-.056 28.452 28.452 0 0 0 2.452-3.988.152.152 0 0 0-.083-.211 26.218 26.218 0 0 1-3.745-1.785.154.154 0 0 1-.015-.255c.252-.189.504-.385.744-.583a.149.149 0 0 1 .155-.021c7.856 3.587 16.36 3.587 24.123 0a.148.148 0 0 1 .157.019c.24.198.492.396.745.585.087.065.082.2-.013.255a24.604 24.604 0 0 1-3.746 1.783.153.153 0 0 0-.081.213 31.944 31.944 0 0 0 2.45 3.987.152.152 0 0 0 .168.057c3.922-1.214 7.9-3.044 12.005-6.06a.154.154 0 0 0 .062-.11c1.001-10.353-1.676-19.347-7.097-27.32a.122.122 0 0 0-.062-.057ZM16.04 30.662c-2.365 0-4.314-2.17-4.314-4.837s1.911-4.838 4.314-4.838c2.422 0 4.352 2.19 4.314 4.838 0 2.666-1.911 4.837-4.314 4.837Zm15.95 0c-2.365 0-4.314-2.17-4.314-4.837s1.91-4.838 4.314-4.838c2.421 0 4.351 2.19 4.313 4.838 0 2.666-1.892 4.837-4.313 4.837Z" fill="#5865F2"/><g clip-path="url(#a)"><path fill-rule="evenodd" clip-rule="evenodd" d="M88 .154c13.255 0 24 10.742 24 23.992 0 11.975-8.776 21.9-20.25 23.7V31.08h5.592l1.064-6.935h-.115l.011-.074H91.75v-4.427c0-1.897.93-3.746 3.911-3.746h3.026V9.995s-.035-.007-.103-.017v-.111s-2.752-.47-5.383-.47c-5.493 0-9.083 3.333-9.083 9.37v5.305h-6.105v6.961h.143v.048h5.962v16.744C72.71 45.97 64 36.075 64 24.145 64 10.896 74.745.156 88 .156Z" fill="#1877F2"/></g><g clip-path="url(#b)"><path d="M175.856 14.42c-.117-2.472-.523-4.161-1.116-5.639a11.365 11.365 0 0 0-2.768-4.115 11.818 11.818 0 0 0-4.251-2.68c-1.527-.575-3.271-.967-5.826-1.08-2.559-.113-3.377-.14-9.895-.14s-7.336.027-9.895.14c-2.555.113-4.299.506-5.826 1.08a11.811 11.811 0 0 0-4.251 2.68 11.363 11.363 0 0 0-2.769 4.115c-.592 1.478-.998 3.167-1.114 5.64C128.028 16.899 128 17.69 128 24c0 6.31.028 7.102.145 9.58.116 2.472.522 4.161 1.115 5.64a11.366 11.366 0 0 0 2.769 4.114 11.794 11.794 0 0 0 4.251 2.68c1.526.575 3.271.967 5.825 1.08 2.56.113 3.378.14 9.895.14 6.518 0 7.336-.027 9.895-.14 2.555-.113 4.299-.505 5.826-1.08 3.224-1.207 5.772-3.674 7.019-6.795.593-1.478.999-3.167 1.116-5.64.116-2.478.144-3.269.144-9.579 0-6.31-.028-7.101-.144-9.58Zm-4.32 18.969c-.107 2.265-.498 3.496-.827 4.314-.807 2.027-2.461 3.628-4.555 4.41-.845.318-2.116.696-4.456.8-2.53.112-3.289.135-9.698.135-6.409 0-7.168-.023-9.698-.135-2.34-.104-3.611-.482-4.457-.8a7.465 7.465 0 0 1-2.759-1.739 7.184 7.184 0 0 1-1.796-2.67c-.328-.82-.719-2.05-.826-4.315-.115-2.45-.14-3.185-.14-9.389 0-6.204.025-6.938.14-9.388.107-2.266.498-3.496.826-4.315a7.186 7.186 0 0 1 1.796-2.671 7.455 7.455 0 0 1 2.76-1.738c.845-.318 2.116-.697 4.456-.8 2.531-.112 3.29-.136 9.698-.136s7.167.024 9.698.136c2.34.103 3.61.482 4.456.8a7.465 7.465 0 0 1 2.76 1.738 7.183 7.183 0 0 1 1.795 2.671c.329.82.72 2.05.827 4.315.115 2.45.139 3.184.139 9.388s-.024 6.939-.139 9.389Z" fill="url(#c)"/><path d="M152 12.07c-6.807 0-12.324 5.341-12.324 11.93 0 6.59 5.517 11.931 12.324 11.931 6.806 0 12.324-5.342 12.324-11.93 0-6.59-5.518-11.932-12.324-11.932Zm0 19.675c-4.418 0-8-3.468-8-7.745s3.582-7.745 8-7.745 8 3.468 8 7.745-3.582 7.745-8 7.745Z" fill="url(#d)"/><path d="M167.691 11.598c0 1.54-1.289 2.788-2.88 2.788s-2.88-1.248-2.88-2.788c0-1.54 1.289-2.788 2.88-2.788s2.88 1.248 2.88 2.788Z" fill="url(#e)"/></g><g clip-path="url(#f)"><path d="M192.747 15.876V48h9.899V15.876h-9.899ZM197.79 0C194.615 0 192 2.615 192 5.79s2.615 5.79 5.79 5.79 5.79-2.615 5.79-5.79S200.965 0 197.79 0Zm11.019 15.876h.187v31.75h9.899V31.752c0-4.109.747-8.218 5.977-8.218 5.229 0 5.229 4.856 5.229 8.591v15.69H240V30.256c0-8.592-1.868-15.315-11.953-15.315-4.856 0-8.218 2.614-9.526 5.23h-.186v-4.296h-9.526Z" fill="#0077B5"/></g><g clip-path="url(#g)"><path d="M280 47.803c13.255 0 24-10.7 24-23.901C304 10.702 293.255 0 280 0s-24 10.701-24 23.902c0 13.2 10.745 23.901 24 23.901Z" fill="#fff"/><path d="M280 0c-13.254 0-24 10.702-24 23.902 0 10.13 6.321 18.786 15.249 22.268-.217-1.888-.395-4.8.079-6.865a8153.52 8153.52 0 0 1 2.805-11.882s-.711-1.436-.711-3.541c0-3.325 1.936-5.803 4.346-5.803 2.054 0 3.042 1.534 3.042 3.364 0 2.045-1.304 5.114-1.995 7.967-.573 2.38 1.205 4.328 3.555 4.328 4.267 0 7.546-4.485 7.546-10.938 0-5.725-4.128-9.718-10.035-9.718-6.834 0-10.844 5.095-10.844 10.367 0 2.046.79 4.25 1.778 5.45a.711.711 0 0 1 .158.688c-.178.747-.593 2.38-.672 2.715-.099.432-.355.53-.81.314-3.002-1.396-4.879-5.744-4.879-9.265 0-7.535 5.492-14.46 15.862-14.46 8.316 0 14.795 5.902 14.795 13.81 0 8.243-5.215 14.873-12.444 14.873-2.43 0-4.721-1.26-5.492-2.754l-1.501 5.685c-.533 2.085-1.995 4.682-2.983 6.275a24.2 24.2 0 0 0 7.111 1.063c13.255 0 24-10.702 24-23.902C304 10.701 293.254 0 280 0Z" fill="#E60019"/></g><path fill-rule="evenodd" clip-rule="evenodd" d="M339.308 18.9v-1.872a14.468 14.468 0 0 0-1.961-.143c-8.025 0-14.554 6.53-14.554 14.555 0 4.923 2.46 9.281 6.213 11.916a14.498 14.498 0 0 1-3.908-9.91c0-7.91 6.343-14.361 14.21-14.546Z" fill="#00F2EA"/><path fill-rule="evenodd" clip-rule="evenodd" d="M339.651 40.093c3.581 0 6.502-2.848 6.635-6.398l.012-31.689h5.789A10.98 10.98 0 0 1 351.9 0h-7.906l-.014 31.69c-.131 3.549-3.054 6.396-6.633 6.396a6.605 6.605 0 0 1-3.084-.763 6.64 6.64 0 0 0 5.388 2.77Zm23.251-27.33V11a10.926 10.926 0 0 1-5.99-1.78 11.002 11.002 0 0 0 5.991 3.541" fill="#00F2EA"/><path fill-rule="evenodd" clip-rule="evenodd" d="M356.911 9.22a10.95 10.95 0 0 1-2.706-7.213h-2.118a11.018 11.018 0 0 0 4.824 7.212Zm-19.564 15.572a6.654 6.654 0 0 0-6.647 6.647 6.657 6.657 0 0 0 3.562 5.884 6.6 6.6 0 0 1-1.258-3.876 6.656 6.656 0 0 1 6.647-6.648c.685 0 1.341.113 1.961.308v-8.073a14.48 14.48 0 0 0-1.961-.143c-.116 0-.229.007-.343.009v6.2a6.537 6.537 0 0 0-1.961-.308Z" fill="#FF004F"/><path fill-rule="evenodd" clip-rule="evenodd" d="M362.902 12.762v6.146a18.804 18.804 0 0 1-11.001-3.538v16.07c0 8.024-6.528 14.554-14.554 14.554-3.101 0-5.977-.979-8.34-2.639A14.51 14.51 0 0 0 339.652 48c8.025 0 14.554-6.53 14.554-14.553v-16.07a18.807 18.807 0 0 0 11.001 3.538v-7.909c-.791 0-1.561-.085-2.305-.245" fill="#FF004F"/><path fill-rule="evenodd" clip-rule="evenodd" d="M351.901 31.44V15.37a18.8 18.8 0 0 0 11.001 3.538v-6.146a11 11 0 0 1-5.99-3.543 11.01 11.01 0 0 1-4.824-7.212h-5.79l-.012 31.69c-.133 3.548-3.054 6.396-6.634 6.396a6.64 6.64 0 0 1-5.388-2.77 6.65 6.65 0 0 1-3.563-5.884 6.654 6.654 0 0 1 6.646-6.646 6.51 6.51 0 0 1 1.962.307v-6.2c-7.867.185-14.211 6.636-14.211 14.547a14.5 14.5 0 0 0 3.909 9.91 14.466 14.466 0 0 0 8.34 2.637c8.026 0 14.554-6.53 14.554-14.555Z" fill="#fff"/><path d="M432 9.117a19.7 19.7 0 0 1-5.654 1.55 9.87 9.87 0 0 0 4.328-5.447 19.654 19.654 0 0 1-6.253 2.39 9.83 9.83 0 0 0-7.184-3.11c-5.438 0-9.846 4.41-9.846 9.846 0 .772.087 1.522.257 2.245-8.185-.412-15.439-4.332-20.295-10.288a9.793 9.793 0 0 0-1.334 4.95c0 3.415 1.394 6.43 4.037 8.195-1.614-.053-3.562-.495-4.801-1.233v.124c0 4.77 3.735 8.749 8.239 9.653-.828.226-1.526.347-2.423.347a8.929 8.929 0 0 1-1.767-.177c1.255 3.91 4.935 6.758 9.241 6.838a19.694 19.694 0 0 1-12.205 4.215c-.796 0-1.568-.048-2.34-.138a27.88 27.88 0 0 0 15.098 4.423c18.11 0 28.016-15.002 28.016-28.012 0-.427-.01-.852-.028-1.274A19.978 19.978 0 0 0 432 9.117Z" fill="#1DA1F2"/><g clip-path="url(#h)"><path fill-rule="evenodd" clip-rule="evenodd" d="M493.462 9.768a6 6 0 0 1 1.55 2.676C496 16.198 496 24.02 496 24.02s0 7.782-.988 11.536a6 6 0 0 1-4.227 4.227c-3.753 1.027-18.765 1.027-18.765 1.027s-15.013 0-18.766-1.027a6.01 6.01 0 0 1-4.227-4.227C448 31.803 448 24.02 448 24.02s0-7.822 1.027-11.575a6.01 6.01 0 0 1 4.227-4.228C457.007 7.19 472.02 7.19 472.02 7.19s15.012 0 18.765 1.027a5.998 5.998 0 0 1 2.677 1.55ZM479.684 23.98 467.2 31.17V16.79l12.484 7.19Z" fill="red"/></g><path d="M559.977 12.847c.285-6.252-2.042-9.45-6.974-9.595-6.652-.214-11.159 3.538-13.518 11.264 1.218-.523 2.403-.788 3.553-.788 2.441 0 3.518 1.373 3.23 4.111-.145 1.66-1.222 4.074-3.23 7.247-2.013 3.175-3.523 4.761-4.526 4.761-1.294 0-2.479-2.444-3.557-7.336-.362-1.435-1.008-5.102-1.94-11-.863-5.464-3.163-8.017-6.897-7.658-1.581.145-3.954 1.581-7.114 4.31A597.818 597.818 0 0 1 512 14.409l2.257 2.908c2.152-1.505 3.409-2.26 3.768-2.26 1.648 0 3.188 2.584 4.625 7.747l3.874 14.206c1.934 5.166 4.301 7.747 7.1 7.747 4.516 0 10.037-4.242 16.563-12.722 6.313-8.12 9.575-14.517 9.79-19.188Z" fill="#1AB7EA"/><defs><clipPath id="a"><path fill="#fff" transform="translate(64)" d="M0 0h48v48H0z"/></clipPath><clipPath id="b"><path fill="#fff" transform="translate(128)" d="M0 0h48v48H0z"/></clipPath><clipPath id="f"><path fill="#fff" transform="translate(192)" d="M0 0h48v48H0z"/></clipPath><clipPath id="g"><path fill="#fff" transform="translate(256)" d="M0 0h48v48H0z"/></clipPath><clipPath id="h"><path fill="#fff" transform="translate(448)" d="M0 0h48v48H0z"/></clipPath><linearGradient id="c" x1="132.028" y1="43.334" x2="170.677" y2="3.411" gradientUnits="userSpaceOnUse"><stop stop-color="#FFD600"/><stop offset=".5" stop-color="#FF0100"/><stop offset="1" stop-color="#D800B9"/></linearGradient><linearGradient id="d" x1="143.285" y1="32.437" x2="160.149" y2="15.017" gradientUnits="userSpaceOnUse"><stop stop-color="#FF6400"/><stop offset=".5" stop-color="#FF0100"/><stop offset="1" stop-color="#FD0056"/></linearGradient><linearGradient id="e" x1="162.775" y1="13.569" x2="166.715" y2="9.498" gradientUnits="userSpaceOnUse"><stop stop-color="#F30072"/><stop offset="1" stop-color="#E50097"/></linearGradient></defs></svg>