<svg width="100" height="91" fill="none" xmlns="http://www.w3.org/2000/svg"><path d="M41.386 33.318c2.673-1.29 5.981-1.471 8.913-.486l32.267 10.84c7.41 2.489 8.519 10.552 1.928 14.024L52.305 74.653c-3.24 1.706-7.47 1.701-10.803-.013L13.585 60.278c-6.258-3.22-6.279-10.515-.038-13.526l27.839-13.434Z" fill="#D9D9D9"/><path d="M41.386 21.5c2.673-1.29 5.981-1.47 8.913-.485l32.267 10.84c7.41 2.489 8.519 10.553 1.928 14.024L52.305 62.836c-3.24 1.707-7.47 1.702-10.803-.012L13.585 48.46c-6.258-3.22-6.279-10.515-.038-13.526L41.386 21.5Z" fill="url(#a)"/><defs><linearGradient id="a" x1="97.315" y1="11.392" x2="-9.16" y2="74.492" gradientUnits="userSpaceOnUse"><stop stop-color="#FF1E00"/><stop offset=".427" stop-color="#F01B13"/><stop offset="1" stop-color="#FF8300"/></linearGradient></defs></svg>