<svg width="153" height="144" fill="none" xmlns="http://www.w3.org/2000/svg"><g filter="url(#a)"><path d="M66.117 82.924c-6.69 3.698-14.906-.463-15.186-7.691l-1.174-30.32c-.295-7.604 8.327-12.845 15.31-9.308l29.24 14.81c6.982 3.537 6.912 13.11-.126 17l-28.064 15.51Z" fill="url(#b)"/></g><g filter="url(#c)"><path d="M128 59c0 28.863-25.321 53-57.5 53C38.32 112 13 87.863 13 59S38.32 6 70.5 6C102.679 6 128 30.137 128 59Z" stroke="#fff" stroke-width="12" shape-rendering="crispEdges"/></g><defs><filter id="a" x="49.749" y="34.477" width="64.752" height="65.823" filterUnits="userSpaceOnUse" color-interpolation-filters="sRGB"><feFlood flood-opacity="0" result="BackgroundImageFix"/><feColorMatrix in="SourceAlpha" values="0 0 0 0 0 0 0 0 0 0 0 0 0 0 0 0 0 0 127 0" result="hardAlpha"/><feOffset dx="10" dy="11"/><feGaussianBlur stdDeviation="2.5"/><feComposite in2="hardAlpha" operator="out"/><feColorMatrix values="0 0 0 0 0 0 0 0 0 0 0 0 0 0 0 0 0 0 0.25 0"/><feBlend in2="BackgroundImageFix" result="effect1_dropShadow_4_21"/><feBlend in="SourceGraphic" in2="effect1_dropShadow_4_21" result="shape"/></filter><filter id="c" x="0" y="0" width="153" height="144" filterUnits="userSpaceOnUse" color-interpolation-filters="sRGB"><feFlood flood-opacity="0" result="BackgroundImageFix"/><feColorMatrix in="SourceAlpha" values="0 0 0 0 0 0 0 0 0 0 0 0 0 0 0 0 0 0 127 0" result="hardAlpha"/><feMorphology radius="7" operator="dilate" in="SourceAlpha" result="effect1_dropShadow_4_21"/><feOffset dx="6" dy="13"/><feGaussianBlur stdDeviation="3"/><feComposite in2="hardAlpha" operator="out"/><feColorMatrix values="0 0 0 0 0 0 0 0 0 0 0 0 0 0 0 0 0 0 0.25 0"/><feBlend in2="BackgroundImageFix" result="effect1_dropShadow_4_21"/><feBlend in="SourceGraphic" in2="effect1_dropShadow_4_21" result="shape"/></filter><linearGradient id="b" x1="16.203" y1="42.754" x2="105.095" y2="90.749" gradientUnits="userSpaceOnUse"><stop stop-color="#FF1E00"/><stop offset=".45" stop-color="#DC2332"/><stop offset="1" stop-color="#FF7F00"/></linearGradient></defs></svg>