<svg width="105" height="80" fill="none" xmlns="http://www.w3.org/2000/svg"><circle cx="73.812" cy="25.188" r="16.332" fill="url(#a)" stroke="url(#b)" stroke-width="2"/><path fill-rule="evenodd" clip-rule="evenodd" d="M73.812 0c-.756 0-1.369.613-1.369 1.369v4.38a1.369 1.369 0 1 0 2.738 0V1.37C75.181.613 74.568 0 73.812 0Zm0 43.257c-.756 0-1.369.613-1.369 1.37v4.38a1.369 1.369 0 1 0 2.738 0v-4.38c0-.757-.613-1.37-1.369-1.37ZM84.536 3.876a1.369 1.369 0 1 1 2.371 1.368l-2.19 3.794a1.369 1.369 0 1 1-2.371-1.369l2.19-3.793Zm-19.758 36.96a1.369 1.369 0 0 0-1.87.501l-2.19 3.794a1.369 1.369 0 1 0 2.37 1.369l2.19-3.794a1.369 1.369 0 0 0-.5-1.87Zm28.977-28.743a1.369 1.369 0 1 1 1.37 2.37l-3.794 2.191a1.369 1.369 0 1 1-1.37-2.371l3.794-2.19Zm-35.591 22.13a1.369 1.369 0 0 0-1.87-.502l-3.794 2.19a1.369 1.369 0 0 0 1.369 2.372l3.794-2.19c.654-.379.879-1.216.5-1.87ZM97.63 23.818a1.369 1.369 0 0 1 0 2.738h-4.38a1.369 1.369 0 0 1 0-2.738h4.38Zm-41.888 1.369c0-.756-.613-1.37-1.37-1.37h-4.38a1.369 1.369 0 1 0 0 2.739h4.38c.757 0 1.37-.613 1.37-1.37Zm39.381 10.724a1.369 1.369 0 1 1-1.368 2.37l-3.794-2.19a1.369 1.369 0 0 1 1.369-2.37l3.793 2.19Zm-36.96-19.759a1.369 1.369 0 0 0-.501-1.87l-3.794-2.19a1.369 1.369 0 1 0-1.369 2.37l3.794 2.191a1.369 1.369 0 0 0 1.87-.501Zm28.743 28.978a1.369 1.369 0 1 1-2.37 1.369l-2.191-3.794a1.369 1.369 0 0 1 2.37-1.369l2.191 3.794ZM64.777 9.539c.655-.378.88-1.215.502-1.87l-2.19-3.793a1.369 1.369 0 0 0-2.372 1.368l2.19 3.794c.379.655 1.216.88 1.87.501Z" fill="url(#c)"/><g filter="url(#d)"><mask id="g" maskUnits="userSpaceOnUse" x="15" y="14.792" width="75" height="47" fill="#000"><path fill="#fff" d="M15 14.792h75v47H15z"/><path fill-rule="evenodd" clip-rule="evenodd" d="M67.622 36.106c0 .675-.034 1.34-.102 1.997a11.808 11.808 0 0 1 7.772-2.903c6.547 0 11.854 5.307 11.854 11.853 0 6.547-5.307 11.854-11.854 11.854h-46.16C22.426 58.87 17 53.421 17 46.705c0-6.691 5.386-12.125 12.059-12.202.814-9.917 9.121-17.711 19.249-17.711 10.667 0 19.314 8.647 19.314 19.314Z"/></mask><path fill-rule="evenodd" clip-rule="evenodd" d="M67.622 36.106c0 .675-.034 1.34-.102 1.997a11.808 11.808 0 0 1 7.772-2.903c6.547 0 11.854 5.307 11.854 11.853 0 6.547-5.307 11.854-11.854 11.854h-46.16C22.426 58.87 17 53.421 17 46.705c0-6.691 5.386-12.125 12.059-12.202.814-9.917 9.121-17.711 19.249-17.711 10.667 0 19.314 8.647 19.314 19.314Z" fill="url(#e)" shape-rendering="crispEdges"/><path d="m67.52 38.103-1.99-.204-.516 5.032 3.818-3.318-1.312-1.51ZM29.133 58.907h-2v2h2v-2Zm0 0h2v-1.989l-1.99-.011-.01 2Zm-.074-24.404.023 2 1.82-.02.15-1.816-1.993-.164Zm40.45 3.804c.075-.724.113-1.458.113-2.2h-4c0 .605-.03 1.203-.091 1.792l3.979.408Zm5.783-5.107a13.808 13.808 0 0 0-9.084 3.393l2.624 3.02a9.808 9.808 0 0 1 6.46-2.413v-4Zm13.854 13.853c0-7.65-6.203-13.853-13.854-13.853v4c5.442 0 9.854 4.411 9.854 9.853h4ZM75.292 60.907c7.651 0 13.854-6.202 13.854-13.853h-4c0 5.442-4.412 9.853-9.854 9.853v4Zm0-4h-46.08v4h46.08v-4Zm-46.09 4h.01v-4h-.01v4Zm-.01 0h.01v-4H29.193v4Zm0-4h-.06v4h.06v-4Zm1.94 2h-4 4ZM15 46.705c0 7.817 6.315 14.158 14.121 14.202l.023-4C23.536 56.876 19 52.32 19 46.705h-4Zm14.036-14.201C21.268 32.594 15 38.916 15 46.704h4c0-5.593 4.503-10.136 10.082-10.2l-.046-4Zm19.272-17.712c-11.177 0-20.343 8.601-21.243 19.548l3.987.327c.73-8.888 8.178-15.875 17.256-15.875v-4Zm21.314 21.314c0-11.771-9.543-21.314-21.314-21.314v4c9.562 0 17.314 7.752 17.314 17.314h4Z" fill="url(#f)" mask="url(#g)"/></g><defs><linearGradient id="a" x1="82.436" y1="12.046" x2="68.521" y2="40.639" gradientUnits="userSpaceOnUse"><stop offset=".183" stop-color="#FFE600"/><stop offset=".981" stop-color="#F09000"/></linearGradient><linearGradient id="b" x1="65.981" y1="6.35" x2="87.57" y2="58.207" gradientUnits="userSpaceOnUse"><stop stop-color="#FFE600"/><stop offset="1" stop-color="#9C8D00"/></linearGradient><linearGradient id="c" x1="92.292" y1="6.571" x2="54.922" y2="50.375" gradientUnits="userSpaceOnUse"><stop stop-color="#FFE600"/><stop offset="1" stop-color="#A90"/></linearGradient><linearGradient id="e" x1="38.802" y1="16.616" x2="55.675" y2="59.083" gradientUnits="userSpaceOnUse"><stop stop-color="#fff"/><stop offset=".708" stop-color="#9DDCFF" stop-opacity=".69"/></linearGradient><linearGradient id="f" x1="49.798" y1="2.208" x2="73.117" y2="76.145" gradientUnits="userSpaceOnUse"><stop stop-color="#fff"/><stop offset=".714" stop-color="#85C6EC" stop-opacity=".71"/></linearGradient><filter id="d" x="0" y="3.792" width="104.146" height="76.115" filterUnits="userSpaceOnUse" color-interpolation-filters="sRGB"><feFlood flood-opacity="0" result="BackgroundImageFix"/><feGaussianBlur in="BackgroundImage" stdDeviation="5"/><feComposite in2="SourceAlpha" operator="in" result="effect1_backgroundBlur_45_151"/><feColorMatrix in="SourceAlpha" values="0 0 0 0 0 0 0 0 0 0 0 0 0 0 0 0 0 0 127 0" result="hardAlpha"/><feOffset dy="4"/><feGaussianBlur stdDeviation="7.5"/><feComposite in2="hardAlpha" operator="out"/><feColorMatrix values="0 0 0 0 0 0 0 0 0 0 0 0 0 0 0 0 0 0 0.1 0"/><feBlend in2="effect1_backgroundBlur_45_151" result="effect2_dropShadow_45_151"/><feBlend in="SourceGraphic" in2="effect2_dropShadow_45_151" result="shape"/></filter></defs></svg>