<svg width="48" height="46" fill="none" xmlns="http://www.w3.org/2000/svg"><path d="M47.856 13.573c-.117-2.328-.523-3.918-1.116-5.308a10.679 10.679 0 0 0-2.768-3.874A11.934 11.934 0 0 0 39.72 1.87c-1.527-.54-3.271-.91-5.826-1.016C31.335.746 30.518.721 24 .721s-7.336.025-9.895.132c-2.555.106-4.299.476-5.826 1.016a11.93 11.93 0 0 0-4.25 2.522 10.68 10.68 0 0 0-2.77 3.873C.667 9.655.261 11.245.145 13.572.028 15.905 0 16.65 0 22.588s.028 6.684.145 9.016c.116 2.328.522 3.917 1.115 5.308a10.677 10.677 0 0 0 2.769 3.873 11.926 11.926 0 0 0 4.25 2.522c1.527.541 3.272.91 5.826 1.017 2.56.106 3.378.131 9.895.131 6.518 0 7.336-.025 9.895-.131 2.555-.106 4.3-.476 5.826-1.017 3.224-1.136 5.772-3.458 7.019-6.395.593-1.39.999-2.98 1.116-5.308.116-2.332.144-3.077.144-9.016s-.028-6.683-.144-9.015Zm-4.32 17.852c-.107 2.132-.498 3.29-.827 4.06-.807 1.908-2.461 3.415-4.555 4.15-.845.3-2.116.656-4.456.753-2.53.106-3.29.128-9.698.128-6.41 0-7.168-.022-9.698-.128-2.34-.097-3.61-.453-4.457-.752A7.545 7.545 0 0 1 7.085 38a6.75 6.75 0 0 1-1.795-2.515c-.328-.77-.72-1.928-.826-4.06-.115-2.306-.14-2.997-.14-8.836 0-5.84.025-6.53.14-8.837.107-2.132.498-3.29.826-4.06.385-.95.999-1.81 1.796-2.515a7.538 7.538 0 0 1 2.76-1.635c.845-.3 2.116-.656 4.456-.754 2.53-.105 3.29-.127 9.698-.127s7.167.022 9.698.128c2.34.097 3.61.453 4.456.753 1.043.35 1.986.91 2.76 1.635a6.745 6.745 0 0 1 1.795 2.515c.329.77.72 1.928.826 4.06.116 2.306.14 2.998.14 8.836 0 5.84-.024 6.531-.14 8.837Z" fill="url(#a)"/><path d="M24 11.36c-6.807 0-12.325 5.027-12.325 11.228 0 6.202 5.518 11.23 12.325 11.23 6.806 0 12.324-5.028 12.324-11.23 0-6.201-5.518-11.229-12.324-11.229Zm0 18.517c-4.418 0-8-3.263-8-7.289 0-4.025 3.582-7.289 8-7.289s8 3.264 8 7.29c0 4.025-3.582 7.288-8 7.288Z" fill="url(#b)"/><path d="M39.691 10.916c0 1.449-1.29 2.624-2.88 2.624-1.59 0-2.88-1.175-2.88-2.624 0-1.45 1.29-2.625 2.88-2.625 1.59 0 2.88 1.175 2.88 2.625Z" fill="url(#c)"/><defs><linearGradient id="a" x1="4.028" y1="40.785" x2="40.265" y2="1.014" gradientUnits="userSpaceOnUse"><stop stop-color="#FFD600"/><stop offset=".5" stop-color="#FF0100"/><stop offset="1" stop-color="#D800B9"/></linearGradient><linearGradient id="b" x1="15.285" y1="30.529" x2="31.097" y2="13.175" gradientUnits="userSpaceOnUse"><stop stop-color="#FF6400"/><stop offset=".5" stop-color="#FF0100"/><stop offset="1" stop-color="#FD0056"/></linearGradient><linearGradient id="c" x1="34.775" y1="12.771" x2="38.469" y2="8.716" gradientUnits="userSpaceOnUse"><stop stop-color="#F30072"/><stop offset="1" stop-color="#E50097"/></linearGradient></defs></svg>