<svg width="68" height="68" fill="none" xmlns="http://www.w3.org/2000/svg"><path d="M63.715 67.907H37.148L28.71 13.469h35.006A4.286 4.286 0 0 1 68 17.754v45.85a4.29 4.29 0 0 1-4.285 4.303Z" fill="#E5E5E5"/><path d="M63.715 67.907H37.148L28.71 13.469h7.508L68 45.03v18.574a4.29 4.29 0 0 1-4.285 4.304Z" fill="#D9D9D9"/><path d="M37.148 67.907 48.83 55.089H32.752l4.396 12.818Z" fill="#4455B7"/><path d="M4.285 0h26.79l17.736 55.09H4.285A4.286 4.286 0 0 1 0 50.803V4.284A4.286 4.286 0 0 1 4.285 0Z" fill="#518FF5"/><path d="M58.107 32.1h5.59v-2.627H50.952v-4.23h-4.285v4.286h-6.911v2.552h15.24s-.914 4.36-4.602 8.384c-2.795-3.298-3.559-5.18-3.559-5.18h-3.39s.651 1.584 2.794 4.77c.391.577 1.155 1.49 2.105 2.534-2.813 2.887-4.378 4.303-4.378 4.303l2.143 1.789s1.974-1.789 4.154-4.006c3.558 3.763 7.992 8.123 7.992 8.123l2.031-2.199s-2.627-2.496-7.452-7.451c-.186-.206-.373-.392-.559-.578a35.232 35.232 0 0 0 2.161-2.571c2.85-3.67 3.67-7.9 3.67-7.9Z" fill="#607B88"/><path d="M19.003 25.113v4.36h6.073a5.25 5.25 0 0 1-2.236 3.446 6.246 6.246 0 0 1-2.459.97c-.875.148-1.788.167-2.664 0a6.414 6.414 0 0 1-2.478-1.081 6.894 6.894 0 0 1-2.552-3.428 6.665 6.665 0 0 1 0-4.341 6.99 6.99 0 0 1 1.62-2.627c.895-.913 2.069-1.584 3.336-1.844a6.742 6.742 0 0 1 3.279.13c.894.28 1.732.764 2.403 1.416l2.05-2.05c.353-.372.744-.726 1.08-1.099a10.566 10.566 0 0 0-3.596-2.217 11.403 11.403 0 0 0-7.508-.074c-2.72.931-5.03 2.962-6.315 5.533a10.816 10.816 0 0 0-.97 2.795c-.484 2.422-.148 5.011.97 7.21a11.3 11.3 0 0 0 3.036 3.725c1.193.95 2.59 1.659 4.062 2.05 1.863.503 3.837.484 5.7.056 1.696-.392 3.298-1.193 4.565-2.385a10.121 10.121 0 0 0 2.813-4.639c.559-1.919.634-3.968.28-5.924-3.503.018-7.005.018-10.49.018Z" fill="#fff"/></svg>