<svg width="49" height="46" fill="none" xmlns="http://www.w3.org/2000/svg"><g clip-path="url(#a)" fill-rule="evenodd" clip-rule="evenodd"><path d="M19.689 17.79v-1.762a15.968 15.968 0 0 0-2-.135c-8.184 0-14.841 6.147-14.841 13.7 0 4.634 2.508 8.736 6.336 11.216-2.563-2.53-3.988-5.864-3.986-9.327 0-7.446 6.469-13.518 14.49-13.692Z" fill="#00F2EA"/><path d="M20.038 37.738c3.651 0 6.63-2.681 6.765-6.022l.013-29.828h5.903A9.58 9.58 0 0 1 32.529 0h-8.063l-.014 29.828c-.134 3.34-3.114 6.02-6.764 6.02a7.187 7.187 0 0 1-3.144-.718 6.645 6.645 0 0 0 2.406 1.917c.955.453 2.014.69 3.088.69Zm23.708-25.725v-1.658c-2.169.002-4.292-.58-6.108-1.676 1.592 1.692 3.736 2.862 6.11 3.334" fill="#00F2EA"/><path d="M37.637 8.677c-1.78-1.88-2.76-4.291-2.758-6.788h-2.16c.28 1.38.86 2.693 1.705 3.86a10.863 10.863 0 0 0 3.213 2.928ZM17.688 23.336c-1.797.002-3.52.662-4.79 1.835-1.27 1.172-1.985 2.762-1.987 4.421 0 1.141.34 2.26.98 3.236a6.594 6.594 0 0 0 2.652 2.302 5.9 5.9 0 0 1-1.283-3.648c.002-1.66.717-3.25 1.987-4.423s2.994-1.833 4.79-1.835c.7 0 1.368.107 2 .29v-7.598a15.964 15.964 0 0 0-2-.135c-.117 0-.232.007-.349.009v5.836a7.172 7.172 0 0 0-2-.29Z" fill="#FF004F"/><path d="M43.747 12.012v5.785c-4.182 0-8.055-1.235-11.218-3.33v15.125c0 7.554-6.657 13.7-14.84 13.7-3.162 0-6.095-.922-8.505-2.484a14.845 14.845 0 0 0 4.933 3.232 15.86 15.86 0 0 0 5.921 1.14c8.184 0 14.841-6.145 14.841-13.698V16.357c3.269 2.169 7.193 3.334 11.218 3.33v-7.445c-.807 0-1.592-.08-2.35-.23" fill="#FF004F"/><path d="M32.529 29.592V14.467c3.268 2.17 7.192 3.334 11.218 3.33v-5.785c-2.374-.472-4.517-1.642-6.109-3.335a10.864 10.864 0 0 1-3.213-2.928 9.947 9.947 0 0 1-1.706-3.86h-5.903l-.012 29.828c-.136 3.34-3.114 6.02-6.765 6.02a7.229 7.229 0 0 1-3.089-.69 6.647 6.647 0 0 1-2.405-1.917 6.594 6.594 0 0 1-2.653-2.302 5.903 5.903 0 0 1-.98-3.236c.001-1.659.716-3.249 1.987-4.421 1.27-1.173 2.993-1.833 4.79-1.835.697 0 1.366.106 2 .29V17.79c-8.022.174-14.49 6.245-14.49 13.692 0 3.6 1.515 6.879 3.985 9.327 2.49 1.618 5.46 2.485 8.505 2.483 8.183 0 14.84-6.146 14.84-13.7Z" fill="#fff"/></g><defs><clipPath id="a"><path fill="#fff" d="M0 0h48.945v45.18H0z"/></clipPath></defs></svg>