<svg width="47" height="48" fill="none" xmlns="http://www.w3.org/2000/svg"><g clip-path="url(#a)"><path fill-rule="evenodd" clip-rule="evenodd" d="M44.515 9.767a6.036 6.036 0 0 1 1.518 2.677C47 16.198 47 24.02 47 24.02s0 7.782-.967 11.536a6.035 6.035 0 0 1-1.518 2.677 5.853 5.853 0 0 1-2.621 1.55c-3.675 1.027-18.375 1.027-18.375 1.027s-14.7 0-18.374-1.027a5.853 5.853 0 0 1-2.621-1.55 6.035 6.035 0 0 1-1.518-2.677C0 31.803 0 24.02 0 24.02s0-7.822 1.006-11.576a6.035 6.035 0 0 1 1.518-2.677 5.853 5.853 0 0 1 2.62-1.55C8.82 7.19 23.52 7.19 23.52 7.19s14.7 0 18.375 1.027a5.853 5.853 0 0 1 2.621 1.55ZM31.025 23.98 18.8 31.17V16.79l12.224 7.19Z" fill="red"/></g><defs><clipPath id="a"><path fill="#fff" d="M0 0h47v48H0z"/></clipPath></defs></svg>